<?xml version="1.0" encoding="utf-8"?>
<!-- Generator: Adobe Illustrator 22.0.0, SVG Export Plug-In . SVG Version: 6.00 Build 0)  -->
<svg version="1.2" baseProfile="tiny" id="Calque_1"
	 xmlns="http://www.w3.org/2000/svg" xmlns:xlink="http://www.w3.org/1999/xlink" x="0px" y="0px" viewBox="0 0 500 500"
	 xml:space="preserve">
<g>
	<g transform="translate(0.000000,401.000000) scale(0.100000,-0.100000)">
		<path d="M-16222.6,2834.1c-463.6-93.9-796.9-492.3-798.8-955.9c-1.9-266.3,76.6-482.7,247.1-672.4
			c116.8-130.3,283.5-239.4,442.5-287.3c153.2-47.9,411.9-51.7,561.3-7.7c486.6,143.7,793.1,624.5,708.8,1111
			C-15155.6,2564-15693.9,2939.5-16222.6,2834.1z"/>
		<path d="M-13512,2698.1c-450.2-74.7-770.1-528.7-691.5-977c49.8-277.8,218.4-498.1,478.9-626.4l143.7-70.9h2252.8h2252.7
			l143.7,70.9c438.7,216.5,609.2,697.3,402.3,1137.9c-69,149.4-222.2,308.4-365.9,381.2c-208.8,105.4-176.3,105.4-2432.8,103.4
			C-12473.8,2715.4-13454.5,2707.7-13512,2698.1z"/>
		<path d="M-16278.1-12.5c-478.9-114.9-810.4-601.5-741.4-1088c95.8-699.2,865.9-1080.4,1475-733.7
			c231.8,130.3,425.3,398.5,478.9,660.9C-14920-470.3-15575.1,158-16278.1-12.5z"/>
		<path d="M-13502.4-137c-256.7-36.4-513.4-229.9-624.5-465.5c-206.9-440.6-32.6-929.1,404.2-1139.8l143.7-69h2844.7h2844.7
			l145.6,69c264.4,126.4,436.8,360.1,482.7,647.5c69,452.1-252.8,885-714.5,957.8C-8129.2-112.1-13331.9-112.1-13502.4-137z"/>
		<path d="M-16289.6-2828.4c-172.4-46-302.7-120.7-442.5-252.9c-245.2-229.9-358.2-555.5-308.4-879.3
			c69-438.7,413.8-783.5,852.4-852.4c599.6-92,1162.8,388.9,1162.8,994.2C-15025.3-3154.1-15655.6-2659.8-16289.6-2828.4z"/>
		<path d="M-13502.4-2972.1c-444.4-65.1-773.9-513.4-704.9-957.8c51.7-327.6,266.3-582.3,578.5-687.7
			c116.9-38.3,141.8-38.3,2335.1-34.5l2216.4,5.7l145.6,69c256.7,124.5,427.2,346.7,478.9,628.3c82.4,461.7-250.9,911.8-720.3,978.9
			C-9339.8-2947.2-13337.7-2949.1-13502.4-2972.1z"/>
	</g>
</g>
<image width="2000" height="2000" xlink:href="list-transparent-bullet.png"  transform="matrix(0.5005 0 0 0.5005 1635.1604 -565.51)">
</image>
<g>
	<g>
		<path fill="#FFC061" d="M452.4,118.1h-290c-8.3,0-15-6.7-15-15V62c0-8.3,6.7-15,15-15h290c8.3,0,15,6.7,15,15v41.1
			C467.4,111.4,460.7,118.1,452.4,118.1z"/>
		<path fill="#FFC061" d="M93.4,118.1H48.3c-8.3,0-15-6.7-15-15V62c0-8.3,6.7-15,15-15h45.1c8.3,0,15,6.7,15,15v41.1
			C108.4,111.4,101.7,118.1,93.4,118.1z"/>
	</g>
	<g>
		<path fill="#FFC061" d="M452.4,285.6h-290c-8.3,0-15-6.7-15-15v-41.1c0-8.3,6.7-15,15-15h290c8.3,0,15,6.7,15,15v41.1
			C467.4,278.8,460.7,285.6,452.4,285.6z"/>
		<path fill="#FFC061" d="M93.4,285.6H48.3c-8.3,0-15-6.7-15-15v-41.1c0-8.3,6.7-15,15-15h45.1c8.3,0,15,6.7,15,15v41.1
			C108.4,278.8,101.7,285.6,93.4,285.6z"/>
	</g>
	<g>
		<path fill="#FFC061" d="M452.1,453h-290c-8.3,0-15-6.7-15-15v-41.1c0-8.3,6.7-15,15-15h290c8.3,0,15,6.7,15,15V438
			C467.1,446.3,460.4,453,452.1,453z"/>
		<path fill="#FFC061" d="M93.1,453H48c-8.3,0-15-6.7-15-15v-41.1c0-8.3,6.7-15,15-15h45.1c8.3,0,15,6.7,15,15V438
			C108.1,446.3,101.4,453,93.1,453z"/>
	</g>
</g>
<rect x="-1130" y="-626.2" width="57" height="904.5"/>
<image width="739" height="1019" xlink:href="DESIGN/Colors_Palettes/Palettes/Palettes_Summer_2K18_01.jpg"  transform="matrix(1 0 0 1 1396 105)">
</image>
</svg>
