<?xml version="1.0" encoding="utf-8"?>
<!-- Generator: Adobe Illustrator 22.0.0, SVG Export Plug-In . SVG Version: 6.00 Build 0)  -->
<svg version="1.2" baseProfile="tiny" id="Calque_1"
	 xmlns="http://www.w3.org/2000/svg" xmlns:xlink="http://www.w3.org/1999/xlink" x="0px" y="0px" viewBox="0 0 500 500"
	 xml:space="preserve">
<g>
	<path fill="#FFC061" d="M406.6,467H93.4C60,467,33,440,33,406.6V93.4C33,60,60,33,93.4,33h313.3C440,33,467,60,467,93.4v313.3
		C467,440,440,467,406.6,467z"/>
	<path fill="#5E4A89" d="M350.6,411H149.4C116,411,89,384,89,350.6V149.4C89,116,116,89,149.4,89h201.3c33.3,0,60.4,27,60.4,60.4
		v201.3C411,384,384,411,350.6,411z"/>
	<path fill="#E26882" d="M294.6,355h-89.3c-33.3,0-60.4-27-60.4-60.4v-89.3c0-33.3,27-60.4,60.4-60.4h89.3c33.3,0,60.4,27,60.4,60.4
		v89.3C355,328,328,355,294.6,355z"/>
</g>
</svg>
